<svg width="85" height="32" viewBox="0 0 85 32" fill="none" xmlns="http://www.w3.org/2000/svg">
<g clip-path="url(#clip0_118_62)">
<path d="M37.6248 23.0245V16.0202L43.9834 23.0245H47.5259V22.8426L40.2116 14.8667L46.9562 7.29762V7.20667H43.3951L37.622 13.895V7.20667H34.7604V23.0245H37.6248ZM52.4388 23.3627C54.0882 23.3627 55.8887 22.7533 57.0397 21.5551L55.346 19.8159C54.7178 20.4701 53.4587 20.8591 52.4815 20.8591C50.5942 20.8591 49.4646 19.8651 49.2922 18.4866H57.6393C57.6621 18.1259 57.6834 17.7862 57.6834 17.4434C57.6834 13.5567 55.5127 11.5911 52.2365 11.5911C48.7638 11.5911 46.5502 14.0307 46.5502 17.421C46.5545 20.9678 48.7467 23.3627 52.4359 23.3627H52.4388ZM55.1082 16.2005H49.3321C49.7438 14.7534 50.8733 14.0307 52.3234 14.0307C53.8674 14.0307 54.9329 14.7534 55.1053 16.2005H55.1082ZM61.4768 28.1302V21.713C62.2572 22.9559 63.8853 23.3404 65.0377 23.3404C68.468 23.3404 70.4419 20.719 70.4419 17.4658C70.4419 14.1871 68.2498 11.6358 64.9507 11.6358C63.7356 11.6358 62.3257 12.1559 61.4797 13.4241L61.3056 11.8876H58.8257V28.1316L61.4768 28.1302ZM64.7528 20.6519C62.9297 20.6519 61.7147 19.2049 61.7147 17.4658C61.7147 15.7266 62.8444 14.3019 64.7528 14.3019C66.6617 14.3019 67.7909 15.7251 67.7909 17.4658C67.7909 19.2063 66.5735 20.6519 64.7499 20.6519H64.7528ZM74.3778 23.0245V7.22755H71.7478V23.0245H74.3778ZM78.9871 23.0245V17.1498C78.9871 15.0634 80.2685 14.3183 81.6564 14.3183C82.5249 14.3183 83.0235 14.6163 83.5671 15.0425L84.7607 12.6462C84.1749 12.0814 83.1107 11.603 82.0042 11.603C80.9414 11.603 79.7692 11.8057 78.9871 13.1618L78.7921 11.8742H76.3357V23.014L78.9871 23.0245Z" fill="white"/>
<path d="M0 13.675C0 8.60115 8.51495e-08 6.06429 1.05257 4.20063C1.64154 3.15783 2.44961 2.28107 3.41072 1.64203C5.12836 0.5 7.4665 0.5 12.1429 0.5H16.4286C21.1049 0.5 23.4431 0.5 25.1607 1.64203C26.1218 2.28107 26.9299 3.15783 27.5188 4.20063C28.5714 6.06429 28.5714 8.60115 28.5714 13.675V18.325C28.5714 23.3988 28.5714 25.9357 27.5188 27.7994C26.9299 28.8422 26.1218 29.719 25.1607 30.358C23.4431 31.5 21.1049 31.5 16.4286 31.5H12.1429C7.4665 31.5 5.12836 31.5 3.41072 30.358C2.44961 29.719 1.64154 28.8422 1.05257 27.7994C8.51495e-08 25.9357 0 23.3988 0 18.325V13.675Z" fill="url(#paint0_linear_118_62)"/>
<path d="M0 13.675C0 8.60115 8.51495e-08 6.06429 1.05257 4.20063C1.64154 3.15783 2.44961 2.28107 3.41072 1.64203C5.12836 0.5 7.4665 0.5 12.1429 0.5H16.4286C21.1049 0.5 23.4431 0.5 25.1607 1.64203C26.1218 2.28107 26.9299 3.15783 27.5188 4.20063C28.5714 6.06429 28.5714 8.60115 28.5714 13.675V18.325C28.5714 23.3988 28.5714 25.9357 27.5188 27.7994C26.9299 28.8422 26.1218 29.719 25.1607 30.358C23.4431 31.5 21.1049 31.5 16.4286 31.5H12.1429C7.4665 31.5 5.12836 31.5 3.41072 30.358C2.44961 29.719 1.64154 28.8422 1.05257 27.7994C8.51495e-08 25.9357 0 23.3988 0 18.325V13.675Z" fill="url(#paint1_radial_118_62)"/>
<path d="M0 13.675C0 8.60115 8.51495e-08 6.06429 1.05257 4.20063C1.64154 3.15783 2.44961 2.28107 3.41072 1.64203C5.12836 0.5 7.4665 0.5 12.1429 0.5H16.4286C21.1049 0.5 23.4431 0.5 25.1607 1.64203C26.1218 2.28107 26.9299 3.15783 27.5188 4.20063C28.5714 6.06429 28.5714 8.60115 28.5714 13.675V18.325C28.5714 23.3988 28.5714 25.9357 27.5188 27.7994C26.9299 28.8422 26.1218 29.719 25.1607 30.358C23.4431 31.5 21.1049 31.5 16.4286 31.5H12.1429C7.4665 31.5 5.12836 31.5 3.41072 30.358C2.44961 29.719 1.64154 28.8422 1.05257 27.7994C8.51495e-08 25.9357 0 23.3988 0 18.325V13.675Z" fill="url(#paint2_radial_118_62)"/>
<path d="M0 13.675C0 8.60115 0 6.06429 1.05257 4.20063C1.64154 3.15783 2.44961 2.28107 3.41072 1.64203C5.12836 0.5 7.4665 0.5 12.1429 0.5H16.4286C21.1049 0.5 23.4431 0.5 25.1607 1.64203C26.1218 2.28107 26.9299 3.15783 27.5188 4.20063C28.5714 6.06429 28.5714 8.60115 28.5714 13.675V18.325C28.5714 23.3988 28.5714 25.9357 27.5188 27.7994C26.9299 28.8422 26.1218 29.719 25.1607 30.358C23.4431 31.5 21.1049 31.5 16.4286 31.5H12.1429C7.4665 31.5 5.12836 31.5 3.41072 30.358C2.44961 29.719 1.64154 28.8422 1.05257 27.7994C0 25.9357 0 23.3988 0 18.325V13.675Z" fill="url(#paint3_radial_118_62)"/>
<path d="M10.9039 24.5251V16.9736L17.6668 24.5251H21.4286V24.3291L13.6506 15.7318L20.8286 7.57309V7.4751H17.0426L10.9039 14.6845V7.4751H7.85718V24.5251H10.9039Z" fill="white"/>
</g>
<defs>
<linearGradient id="paint0_linear_118_62" x1="14.2857" y1="0.5" x2="14.2857" y2="31.5" gradientUnits="userSpaceOnUse">
<stop stop-color="#1FD1FF"/>
<stop offset="1" stop-color="#1BB8FF"/>
</linearGradient>
<radialGradient id="paint1_radial_118_62" cx="0" cy="0" r="1" gradientUnits="userSpaceOnUse" gradientTransform="translate(1.36478 30.3254) rotate(-47.4896) scale(47.8171 48.35)">
<stop stop-color="#232DE3"/>
<stop offset="1" stop-color="#232DE3" stop-opacity="0"/>
</radialGradient>
<radialGradient id="paint2_radial_118_62" cx="0" cy="0" r="1" gradientUnits="userSpaceOnUse" gradientTransform="translate(27.0326 31.323) rotate(-136.121) scale(29.7447 45.6481)">
<stop stop-color="#8B4DFF"/>
<stop offset="1" stop-color="#8B4DFF" stop-opacity="0"/>
</radialGradient>
<radialGradient id="paint3_radial_118_62" cx="0" cy="0" r="1" gradientUnits="userSpaceOnUse" gradientTransform="translate(14.0477 0.729915) rotate(90) scale(24.4409 54.6546)">
<stop stop-color="#24D5FF"/>
<stop offset="1" stop-color="#1BB8FF" stop-opacity="0"/>
</radialGradient>
<clipPath id="clip0_118_62">
<rect width="85" height="31" fill="white" transform="translate(0 0.5)"/>
</clipPath>
</defs>
</svg>
